<?xml version="1.0" encoding="utf-8"?>
<!-- Generator: Adobe Illustrator 21.0.2, SVG Export Plug-In . SVG Version: 6.00 Build 0)  -->
<svg version="1.1" id="Capa_1" xmlns="http://www.w3.org/2000/svg" xmlns:xlink="http://www.w3.org/1999/xlink" x="0px" y="0px"
	 viewBox="0 0 178 54" style="enable-background:new 0 0 178 54;" xml:space="preserve">
<style type="text/css">
	.st0{fill:#99A2AC;}
	.st1{fill:#4A535C;}
	.st2{font-family:'Poppins';}
	.st3{font-size:40px;}
</style>
<title>Logo Combo 3</title>
<desc>Created with Sketch.</desc>
<g id="Styleguide">
	<g id="Brand" transform="translate(-662.000000, -530.000000)">
		<g id="White-BG" transform="translate(89.000000, 80.000000)">
			<g id="Combos" transform="translate(20.000000, 449.000000)">
				<g id="Logo-Combo-3" transform="translate(553.000000, 1.000000)">
					<g id="Logo-Blue" transform="translate(70.600000, 8.529412)">
						<path id="Path" class="st0" d="M98.8,35.2c-0.9,0-1.6-0.3-2.2-0.9s-0.9-1.3-0.9-2.2c0-0.9,0.3-1.6,0.9-2.2
							c0.6-0.6,1.3-0.9,2.2-0.9c0.9,0,1.6,0.3,2.2,0.9c0.6,0.6,0.9,1.3,0.9,2.2c0,0.9-0.3,1.6-0.9,2.2
							C100.4,34.9,99.6,35.2,98.8,35.2z"/>
					</g>
					<path id="Logo-Medium" class="st1" d="M24.3,18.1l-7.9,6.7L8.6,4.7L24.3,18.1z M43.5,4.7l-7.8,20.1l-7.9-6.7L43.5,4.7z
						 M37.4,26.3l8.1-20.8l4,31.1L37.4,26.3z M28.1,50.1l8.4-21.6L49,39.1L28.1,50.1z M15.5,28.5l8.4,21.6L3,39.1L15.5,28.5z
						 M6.5,5.5l8.1,20.8L2.6,36.6L6.5,5.5z M26,49.4L17.3,27l8.8-7.4l8.8,7.4L26,49.4z M52.1,39.3c0,0,0-0.1,0-0.1c0,0,0,0,0,0
						L47.2,1c0-0.3-0.2-0.6-0.5-0.8c0,0,0,0,0,0c0,0-0.1,0-0.1-0.1c0,0,0,0-0.1,0c-0.4-0.2-0.9-0.1-1.2,0.1L26,16.7L6.7,0.3
						C6.4,0,5.9-0.1,5.5,0.1c0,0,0,0-0.1,0c0,0-0.1,0-0.1,0.1c0,0,0,0,0,0C5.1,0.4,4.9,0.6,4.9,1L0,39.2c0,0,0,0,0,0
						c0,0,0,0.1,0,0.1c0,0,0,0,0,0.1c0,0,0,0,0,0.1c0,0,0,0,0,0c0,0,0,0,0,0.1c0,0,0,0.1,0,0.1c0,0,0,0,0,0c0,0,0,0.1,0.1,0.1
						c0,0,0,0,0,0c0,0,0,0.1,0.1,0.1c0,0,0,0,0,0c0,0,0,0.1,0.1,0.1c0,0,0,0,0,0c0,0,0.1,0,0.1,0.1c0,0,0,0,0,0c0,0,0.1,0.1,0.1,0.1
						l24.9,13.1c0,0,0.1,0,0.1,0c0,0,0,0,0,0c0,0,0,0,0.1,0c0,0,0.1,0,0.1,0c0,0,0,0,0.1,0c0,0,0.1,0,0.1,0c0,0,0,0,0,0c0,0,0,0,0,0
						s0,0,0,0c0,0,0,0,0,0c0,0,0.1,0,0.1,0c0,0,0,0,0.1,0c0,0,0.1,0,0.1,0c0,0,0,0,0.1,0c0,0,0,0,0,0c0,0,0.1,0,0.1,0l24.9-13.1
						c0,0,0.1-0.1,0.1-0.1c0,0,0,0,0,0c0,0,0.1,0,0.1-0.1c0,0,0,0,0,0c0,0,0-0.1,0.1-0.1c0,0,0,0,0,0c0,0,0.1-0.1,0.1-0.1
						c0,0,0,0,0,0c0,0,0-0.1,0.1-0.1c0,0,0,0,0,0c0,0,0-0.1,0-0.1c0,0,0,0,0-0.1c0,0,0,0,0,0C52.1,39.4,52.1,39.4,52.1,39.3
						C52.1,39.4,52.1,39.3,52.1,39.3L52.1,39.3z"/>
				</g>
			</g>
		</g>
	</g>
</g>
<text transform="matrix(1 0 0 1 60.5 41.2057)" class="st1 st2 st3">Shell</text>
</svg>
